<?xml version="1.0" encoding="UTF-8" standalone="no"?>
<!-- Created with Inkscape (http://www.inkscape.org/) -->

<svg
   xmlns:dc="http://purl.org/dc/elements/1.1/"
   xmlns:cc="http://creativecommons.org/ns#"
   xmlns:rdf="http://www.w3.org/1999/02/22-rdf-syntax-ns#"
   xmlns:svg="http://www.w3.org/2000/svg"
   xmlns="http://www.w3.org/2000/svg"
   xmlns:sodipodi="http://sodipodi.sourceforge.net/DTD/sodipodi-0.dtd"
   xmlns:inkscape="http://www.inkscape.org/namespaces/inkscape"
   width="210mm"
   height="297mm"
   viewBox="0 0 210 297"
   version="1.1"
   id="svg1796"
   inkscape:version="0.92.3 (2405546, 2018-03-11)"
   sodipodi:docname="acl logo svg.svg">
  <defs
     id="defs1790" />
  <sodipodi:namedview
     id="base"
     pagecolor="#ffffff"
     bordercolor="#666666"
     borderopacity="1.0"
     inkscape:pageopacity="0.0"
     inkscape:pageshadow="2"
     inkscape:zoom="0.35"
     inkscape:cx="-205.71429"
     inkscape:cy="560"
     inkscape:document-units="mm"
     inkscape:current-layer="layer1"
     showgrid="false"
     inkscape:window-width="1920"
     inkscape:window-height="986"
     inkscape:window-x="-11"
     inkscape:window-y="-11"
     inkscape:window-maximized="1" />
  <metadata
     id="metadata1793">
    <rdf:RDF>
      <cc:Work
         rdf:about="">
        <dc:format>image/svg+xml</dc:format>
        <dc:type
           rdf:resource="http://purl.org/dc/dcmitype/StillImage" />
        <dc:title></dc:title>
      </cc:Work>
    </rdf:RDF>
  </metadata>
  <g
     inkscape:label="Layer 1"
     inkscape:groupmode="layer"
     id="layer1">
    <g
       transform="matrix(-2.8195804,3.0220253,-3.0220253,-2.8195804,-271.3841,1075.787)"
       id="g4646"
       inkscape:export-xdpi="102.74"
       inkscape:export-ydpi="102.74">
      <path
         style="opacity:1;fill:#00d455;fill-opacity:1;fill-rule:nonzero;stroke:none;stroke-width:1.73990178;stroke-miterlimit:4;stroke-dasharray:none;stroke-dashoffset:0;stroke-opacity:1"
         d="m -187.35686,100.7307 3.52977,1.45008 c 0,0 -7.46798,4.18712 -7.54496,16.97842 -0.0543,9.02049 7.908,15.2306 7.908,15.2306 l -4.14857,1.1283 c 0,0 -7.58312,-6.33421 -8.1321,-16.15351 -0.72282,-12.9286 8.38786,-18.63389 8.38786,-18.63389 z"
         id="rect4613"
         inkscape:connector-curvature="0"
         sodipodi:nodetypes="ccsccsc" />
      <path
         sodipodi:nodetypes="ccsccsc"
         inkscape:connector-curvature="0"
         id="path4616"
         d="m -158.6344,130.95872 -3.00386,2.35349 c 0,0 0.0463,-8.56158 -11.03894,-14.9444 -7.8174,-4.50116 -17.14916,-0.64352 -17.14916,-0.64352 l 1.06725,-4.16471 c 0,0 9.25247,-3.46665 18.06236,0.90433 11.59957,5.75509 12.06235,16.49478 12.06235,16.49478 z"
         style="opacity:1;fill:#00ccff;fill-opacity:1;fill-rule:nonzero;stroke:none;stroke-width:1.73990178;stroke-miterlimit:4;stroke-dasharray:none;stroke-dashoffset:0;stroke-opacity:1" />
      <path
         style="opacity:1;fill:#0066ff;fill-opacity:1;fill-rule:nonzero;stroke:none;stroke-width:1.73990178;stroke-miterlimit:4;stroke-dasharray:none;stroke-dashoffset:0;stroke-opacity:1"
         d="m -200.14792,139.52565 -0.29507,-3.8046 c 0,0 7.10187,4.78185 18.55704,-0.91047 8.07823,-4.01426 10.0367,-13.9202 10.0367,-13.9202 l 2.87586,3.19582 c 0,0 -2.24004,9.6233 -10.75976,14.53596 -11.21752,6.46824 -20.41474,0.90352 -20.41474,0.90352 z"
         id="path4618"
         inkscape:connector-curvature="0"
         sodipodi:nodetypes="ccsccsc" />
    </g>
  </g>
</svg>
